{
  "accessors": [
    {
      "bufferView": 2,
      "componentType": 5126,
      "count": 65532,
      "max": [
        0.98817294836044312,
        1.7390797138214111,
        1.2411650419235229
      ],
      "min": [
        0.15338380634784698,
        0.11718819290399551,
        -0.11600513756275177
      ],
      "type": "VEC3"
    },
    {
      "bufferView": 2,
      "byteOffset": 786384,
      "componentType": 5126,
      "count": 65532,
      "max": [
        0.9999847412109375,
        0.99995219707489014,
        0.99998331069946289
      ],
      "min": [
        -0.9999847412109375,
        -0.99995219707489014,
        -0.99998331069946289
      ],
      "type": "VEC3"
    },
    {
      "bufferView": 3,
      "componentType": 5126,
      "count": 65532,
      "max": [
        0.91372549533843994,
        0.65098041296005249,
        0.70588237047195435,
        1
      ],
      "min": [
        0.76470589637756348,
        0.17254902422428131,
        0.27058824896812439,
        0
      ],
      "type": "VEC4"
    },
    {
      "bufferView": 1,
      "componentType": 5126,
      "count": 65532,
      "max": [
        46.214969635009766,
        1
      ],
      "min": [
        0.0002658553421497345,
        0
      ],
      "type": "VEC2"
    },
    {
      "bufferView": 1,
      "byteOffset": 524256,
      "componentType": 5126,
      "count": 65532,
      "max": [
        46.214969635009766,
        1
      ],
      "min": [
        0.0002658553421497345,
        0
      ],
      "type": "VEC2"
    },
    {
      "bufferView": 0,
      "componentType": 5125,
      "count": 188406,
      "max": [
        65531
      ],
      "min": [
        0
      ],
      "type": "SCALAR"
    },
    {
      "bufferView": 2,
      "byteOffset": 1572768,
      "componentType": 5126,
      "count": 65532,
      "max": [
        1.0692765712738037,
        1.7037609815597534,
        1.3392748832702637
      ],
      "min": [
        0.036785077303647995,
        0.30186021327972412,
        -0.38739004731178284
      ],
      "type": "VEC3"
    },
    {
      "bufferView": 2,
      "byteOffset": 2359152,
      "componentType": 5126,
      "count": 65532,
      "max": [
        0.99992018938064575,
        0.999583899974823,
        0.99998140335083008
      ],
      "min": [
        -0.99992018938064575,
        -0.999583899974823,
        -0.99998140335083008
      ],
      "type": "VEC3"
    },
    {
      "bufferView": 3,
      "byteOffset": 1048512,
      "componentType": 5126,
      "count": 65532,
      "max": [
        0.89411765336990356,
        0.36078432202339172,
        0.70588237047195435,
        1
      ],
      "min": [
        0.82352942228317261,
        0.10196078568696976,
        0.44705882668495178,
        0
      ],
      "type": "VEC4"
    },
    {
      "bufferView": 1,
      "byteOffset": 1048512,
      "componentType": 5126,
      "count": 65532,
      "max": [
        51.777587890625,
        1
      ],
      "min": [
        0.0017299801111221313,
        0
      ],
      "type": "VEC2"
    },
    {
      "bufferView": 1,
      "byteOffset": 1572768,
      "componentType": 5126,
      "count": 65532,
      "max": [
        51.777587890625,
        1
      ],
      "min": [
        0.0017299801111221313,
        0
      ],
      "type": "VEC2"
    },
    {
      "bufferView": 0,
      "byteOffset": 753624,
      "componentType": 5125,
      "count": 189870,
      "max": [
        65531
      ],
      "min": [
        0
      ],
      "type": "SCALAR"
    },
    {
      "bufferView": 2,
      "byteOffset": 3145536,
      "componentType": 5126,
      "count": 39310,
      "max": [
        0.90588682889938354,
        1.758840799331665,
        0.6080595850944519
      ],
      "min": [
        0.1882137805223465,
        0.26870590448379517,
        -0.39945361018180847
      ],
      "type": "VEC3"
    },
    {
      "bufferView": 2,
      "byteOffset": 3617256,
      "componentType": 5126,
      "count": 39310,
      "max": [
        0.99977791309356689,
        0.99992430210113525,
        0.99996006488800049
      ],
      "min": [
        -0.99977791309356689,
        -0.99992430210113525,
        -0.99996006488800049
      ],
      "type": "VEC3"
    },
    {
      "bufferView": 3,
      "byteOffset": 2097024,
      "componentType": 5126,
      "count": 39310,
      "max": [
        0.90588235855102539,
        0.68235296010971069,
        0.55686277151107788,
        1
      ],
      "min": [
        0.83137255907058716,
        0.16470588743686676,
        0.11372549086809158,
        0
      ],
      "type": "VEC4"
    },
    {
      "bufferView": 1,
      "byteOffset": 2097024,
      "componentType": 5126,
      "count": 39310,
      "max": [
        18.323623657226562,
        1
      ],
      "min": [
        0.0015655085444450378,
        0
      ],
      "type": "VEC2"
    },
    {
      "bufferView": 1,
      "byteOffset": 2411504,
      "componentType": 5126,
      "count": 39310,
      "max": [
        18.323623657226562,
        1
      ],
      "min": [
        0.0015655085444450378,
        0
      ],
      "type": "VEC2"
    },
    {
      "bufferView": 0,
      "byteOffset": 1513104,
      "componentType": 5125,
      "count": 113112,
      "max": [
        39309
      ],
      "min": [
        0
      ],
      "type": "SCALAR"
    },
    {
      "bufferView": 2,
      "byteOffset": 4088976,
      "componentType": 5126,
      "count": 1456,
      "max": [
        1.042323112487793,
        1.599562406539917,
        1.3155783414840698
      ],
      "min": [
        0.047299552708864212,
        0.27863410115242004,
        -0.40842506289482117
      ],
      "type": "VEC3"
    },
    {
      "bufferView": 2,
      "byteOffset": 4106448,
      "componentType": 5126,
      "count": 1456,
      "max": [
        0.98823302984237671,
        0.9974101185798645,
        0.99432533979415894
      ],
      "min": [
        -0.99894189834594727,
        -0.98754078149795532,
        -0.99962574243545532
      ],
      "type": "VEC3"
    },
    {
      "bufferView": 3,
      "byteOffset": 2725984,
      "componentType": 5126,
      "count": 1456,
      "max": [
        0.90588235855102539,
        0.68235296010971069,
        0.76470589637756348,
        1
      ],
      "min": [
        0.82352942228317261,
        0.364705890417099,
        0.28235295414924622,
        0
      ],
      "type": "VEC4"
    },
    {
      "bufferView": 1,
      "byteOffset": 2725984,
      "componentType": 5126,
      "count": 1456,
      "max": [
        7.7980122566223145,
        1
      ],
      "min": [
        0.0023710951209068298,
        0
      ],
      "type": "VEC2"
    },
    {
      "bufferView": 1,
      "byteOffset": 2737632,
      "componentType": 5126,
      "count": 1456,
      "max": [
        7.7980122566223145,
        1
      ],
      "min": [
        0.0023710951209068298,
        0
      ],
      "type": "VEC2"
    },
    {
      "bufferView": 0,
      "byteOffset": 1965552,
      "componentType": 5125,
      "count": 3738,
      "max": [
        1455
      ],
      "min": [
        0
      ],
      "type": "SCALAR"
    },
    {
      "bufferView": 2,
      "byteOffset": 4123920,
      "componentType": 5126,
      "count": 192,
      "max": [
        0.46132484078407288,
        1.3435238599777222,
        -0.10202338546514511
      ],
      "min": [
        0.37024274468421936,
        1.0967881679534912,
        -0.38385728001594543
      ],
      "type": "VEC3"
    },
    {
      "bufferView": 2,
      "byteOffset": 4126224,
      "componentType": 5126,
      "count": 192,
      "max": [
        0.99243044853210449,
        0.85066121816635132,
        0.61976432800292969
      ],
      "min": [
        -0.96479326486587524,
        -0.35306158661842346,
        -0.88294684886932373
      ],
      "type": "VEC3"
    },
    {
      "bufferView": 3,
      "byteOffset": 2749280,
      "componentType": 5126,
      "count": 192,
      "max": [
        0.82352942228317261,
        0.364705890417099,
        0.76470589637756348,
        1
      ],
      "min": [
        0.82352942228317261,
        0.364705890417099,
        0.76470589637756348,
        1
      ],
      "type": "VEC4"
    },
    {
      "bufferView": 1,
      "byteOffset": 2749280,
      "componentType": 5126,
      "count": 192,
      "max": [
        1,
        1
      ],
      "min": [
        0,
        0
      ],
      "type": "VEC2"
    },
    {
      "bufferView": 1,
      "byteOffset": 2750816,
      "componentType": 5126,
      "count": 192,
      "max": [
        1,
        1
      ],
      "min": [
        0,
        0
      ],
      "type": "VEC2"
    },
    {
      "bufferView": 0,
      "byteOffset": 1980504,
      "componentType": 5125,
      "count": 432,
      "max": [
        191
      ],
      "min": [
        0
      ],
      "type": "SCALAR"
    },
    {
      "bufferView": 2,
      "byteOffset": 4128528,
      "componentType": 5126,
      "count": 3318,
      "max": [
        0.92462772130966187,
        1.439175009727478,
        1.6192165613174438
      ],
      "min": [
        -0.15932713449001312,
        0.11726953089237213,
        -0.36393997073173523
      ],
      "type": "VEC3"
    },
    {
      "bufferView": 2,
      "byteOffset": 4168344,
      "componentType": 5126,
      "count": 3318,
      "max": [
        0.99934375286102295,
        0.99385225772857666,
        0.99854779243469238
      ],
      "min": [
        -0.95273417234420776,
        -0.99073493480682373,
        -0.9946179986000061
      ],
      "type": "VEC3"
    },
    {
      "bufferView": 3,
      "byteOffset": 2752352,
      "componentType": 5126,
      "count": 3318,
      "max": [
        0.81176471710205078,
        0.67843139171600342,
        0.67058825492858887,
        1
      ],
      "min": [
        0.46666666865348816,
        0.11764705926179886,
        0.17254902422428131,
        1
      ],
      "type": "VEC4"
    },
    {
      "bufferView": 1,
      "byteOffset": 2752352,
      "componentType": 5126,
      "count": 3318,
      "max": [
        1,
        1
      ],
      "min": [
        0,
        0
      ],
      "type": "VEC2"
    },
    {
      "bufferView": 1,
      "byteOffset": 2778896,
      "componentType": 5126,
      "count": 3318,
      "max": [
        1,
        1
      ],
      "min": [
        0,
        0
      ],
      "type": "VEC2"
    },
    {
      "bufferView": 0,
      "byteOffset": 1982232,
      "componentType": 5125,
      "count": 7812,
      "max": [
        3317
      ],
      "min": [
        0
      ],
      "type": "SCALAR"
    }
  ],
  "asset": {
    "extras": {
      "author": "NJesrani (https://sketchfab.com/nilomeejesranife0e113a33634a72)",
      "license": "CC-BY-4.0 (http://creativecommons.org/licenses/by/4.0/)",
      "source": "https://sketchfab.com/3d-models/jelly-fish-9c72edc0766f476498b3685bf8ea6030",
      "title": "Jelly Fish"
    },
    "generator": "Sketchfab-9.69.0",
    "version": "2.0"
  },
  "bufferViews": [
    {
      "buffer": 0,
      "byteLength": 2013480,
      "byteOffset": 0,
      "name": "floatBufferViews",
      "target": 34963
    },
    {
      "buffer": 0,
      "byteLength": 2805440,
      "byteOffset": 2013480,
      "byteStride": 8,
      "name": "floatBufferViews",
      "target": 34962
    },
    {
      "buffer": 0,
      "byteLength": 4208160,
      "byteOffset": 4818920,
      "byteStride": 12,
      "name": "floatBufferViews",
      "target": 34962
    },
    {
      "buffer": 0,
      "byteLength": 2805440,
      "byteOffset": 9027080,
      "byteStride": 16,
      "name": "floatBufferViews",
      "target": 34962
    }
  ],
  "buffers": [
    {
      "byteLength": 11832520,
      "uri": "scene.bin"
    }
  ],
  "materials": [
    {
      "alphaCutoff": 0.20000000000000001,
      "alphaMode": "MASK",
      "doubleSided": true,
      "emissiveFactor": [
        1,
        1,
        1
      ],
      "name": "Paper",
      "pbrMetallicRoughness": {
        "baseColorFactor": [
          1,
          1,
          1,
          1
        ],
        "metallicFactor": 0,
        "roughnessFactor": 0.59999999999999998
      }
    },
    {
      "doubleSided": true,
      "emissiveFactor": [
        1,
        1,
        1
      ],
      "name": "Highlighter",
      "pbrMetallicRoughness": {
        "baseColorFactor": [
          1,
          1,
          1,
          1
        ],
        "metallicFactor": 0,
        "roughnessFactor": 0.59999999999999998
      }
    },
    {
      "doubleSided": true,
      "emissiveFactor": [
        1,
        1,
        1
      ],
      "name": "SoftHighlighter",
      "pbrMetallicRoughness": {
        "baseColorFactor": [
          1,
          1,
          1,
          1
        ],
        "metallicFactor": 0,
        "roughnessFactor": 0.59999999999999998
      }
    },
    {
      "doubleSided": true,
      "emissiveFactor": [
        1,
        1,
        1
      ],
      "name": "Waveform",
      "pbrMetallicRoughness": {
        "baseColorFactor": [
          1,
          1,
          1,
          1
        ],
        "metallicFactor": 0,
        "roughnessFactor": 0.59999999999999998
      }
    }
  ],
  "meshes": [
    {
      "name": "Paper_geo_Paper_0",
      "primitives": [
        {
          "attributes": {
            "COLOR_0": 2,
            "NORMAL": 1,
            "POSITION": 0,
            "TEXCOORD_0": 3,
            "TEXCOORD_1": 4
          },
          "indices": 5,
          "material": 0,
          "mode": 4
        }
      ]
    },
    {
      "name": "Paper_geo_Paper_0",
      "primitives": [
        {
          "attributes": {
            "COLOR_0": 8,
            "NORMAL": 7,
            "POSITION": 6,
            "TEXCOORD_0": 9,
            "TEXCOORD_1": 10
          },
          "indices": 11,
          "material": 0,
          "mode": 4
        }
      ]
    },
    {
      "name": "Paper_geo_Paper_0",
      "primitives": [
        {
          "attributes": {
            "COLOR_0": 14,
            "NORMAL": 13,
            "POSITION": 12,
            "TEXCOORD_0": 15,
            "TEXCOORD_1": 16
          },
          "indices": 17,
          "material": 0,
          "mode": 4
        }
      ]
    },
    {
      "name": "Highlighter_geo_Highlighter_0",
      "primitives": [
        {
          "attributes": {
            "COLOR_0": 20,
            "NORMAL": 19,
            "POSITION": 18,
            "TEXCOORD_0": 21,
            "TEXCOORD_1": 22
          },
          "indices": 23,
          "material": 1,
          "mode": 4
        }
      ]
    },
    {
      "name": "SoftHighlighter_geo_SoftHighlighter_0",
      "primitives": [
        {
          "attributes": {
            "COLOR_0": 26,
            "NORMAL": 25,
            "POSITION": 24,
            "TEXCOORD_0": 27,
            "TEXCOORD_1": 28
          },
          "indices": 29,
          "material": 2,
          "mode": 4
        }
      ]
    },
    {
      "name": "Waveform_geo_Waveform_0",
      "primitives": [
        {
          "attributes": {
            "COLOR_0": 32,
            "NORMAL": 31,
            "POSITION": 30,
            "TEXCOORD_0": 33,
            "TEXCOORD_1": 34
          },
          "indices": 35,
          "material": 3,
          "mode": 4
        }
      ]
    }
  ],
  "nodes": [
    {
      "children": [
        1
      ],
      "name": "RootNode (gltf orientation matrix)",
      "rotation": [
        -0.70710678118654746,
        -0,
        -0,
        0.70710678118654757
      ]
    },
    {
      "children": [
        2
      ],
      "matrix": [
        0.70330905914306641,
        0,
        -1.9923123415310936e-16,
        0,
        0,
        0.70330905914306641,
        0,
        0,
        1.9923123415310936e-16,
        0,
        0.70330905914306641,
        0,
        -2.7755575615628914e-16,
        0,
        1.1102230246251565e-16,
        1
      ],
      "name": "RootNode (model correction matrix)"
    },
    {
      "children": [
        3
      ],
      "matrix": [
        1,
        0,
        0,
        0,
        0,
        0,
        1,
        0,
        0,
        -1,
        0,
        0,
        0,
        0,
        0,
        1
      ],
      "name": "18121065a0ad445d976955fcb4baf5c8.fbx"
    },
    {
      "children": [
        4,
        8,
        10,
        12
      ],
      "name": "RootNode"
    },
    {
      "children": [
        5,
        6,
        7
      ],
      "name": "Paper_geo"
    },
    {
      "mesh": 0,
      "name": "Paper_geo_Paper_0"
    },
    {
      "mesh": 1,
      "name": "Paper_geo_Paper_0"
    },
    {
      "mesh": 2,
      "name": "Paper_geo_Paper_0"
    },
    {
      "children": [
        9
      ],
      "name": "Highlighter_geo"
    },
    {
      "mesh": 3,
      "name": "Highlighter_geo_Highlighter_0"
    },
    {
      "children": [
        11
      ],
      "name": "SoftHighlighter_geo"
    },
    {
      "mesh": 4,
      "name": "SoftHighlighter_geo_SoftHighlighter_0"
    },
    {
      "children": [
        13
      ],
      "name": "Waveform_geo"
    },
    {
      "mesh": 5,
      "name": "Waveform_geo_Waveform_0"
    }
  ],
  "scene": 0,
  "scenes": [
    {
      "name": "OSG_Scene",
      "nodes": [
        0
      ]
    }
  ]
}

