{
  "accessors": [
    {
      "bufferView": 2,
      "componentType": 5126,
      "count": 33182,
      "max": [
        12.910764694213867,
        6.9115142822265625,
        8.5392141342163086
      ],
      "min": [
        -6.0366373062133789,
        -8.3601865768432617,
        -60.042484283447266
      ],
      "type": "VEC3"
    },
    {
      "bufferView": 2,
      "byteOffset": 398184,
      "componentType": 5126,
      "count": 33182,
      "max": [
        0.99996042251586914,
        0.9999992847442627,
        1
      ],
      "min": [
        -0.99984872341156006,
        -0.99999725818634033,
        -0.98999392986297607
      ],
      "type": "VEC3"
    },
    {
      "bufferView": 1,
      "componentType": 5126,
      "count": 33182,
      "max": [
        1.0000004768371582,
        0.999664306640625
      ],
      "min": [
        0,
        0
      ],
      "type": "VEC2"
    },
    {
      "bufferView": 1,
      "byteOffset": 265456,
      "componentType": 5126,
      "count": 33182,
      "max": [
        1.0000004768371582,
        0.999664306640625
      ],
      "min": [
        0,
        0
      ],
      "type": "VEC2"
    },
    {
      "bufferView": 0,
      "componentType": 5125,
      "count": 90282,
      "max": [
        33181
      ],
      "min": [
        0
      ],
      "type": "SCALAR"
    }
  ],
  "asset": {
    "extras": {
      "author": "aeonfitzgerald (https://sketchfab.com/aeonfitzgerald)",
      "license": "CC-BY-4.0 (http://creativecommons.org/licenses/by/4.0/)",
      "source": "https://sketchfab.com/3d-models/prins-jellyfish-3cfe9d4021b14a5fad8372bcb490956b",
      "title": "Prins Jellyfish"
    },
    "generator": "Sketchfab-10.28.0",
    "version": "2.0"
  },
  "bufferViews": [
    {
      "buffer": 0,
      "byteLength": 361128,
      "byteOffset": 0,
      "name": "floatBufferViews",
      "target": 34963
    },
    {
      "buffer": 0,
      "byteLength": 530912,
      "byteOffset": 361128,
      "byteStride": 8,
      "name": "floatBufferViews",
      "target": 34962
    },
    {
      "buffer": 0,
      "byteLength": 796368,
      "byteOffset": 892040,
      "byteStride": 12,
      "name": "floatBufferViews",
      "target": 34962
    }
  ],
  "buffers": [
    {
      "byteLength": 1688408,
      "uri": "scene.bin"
    }
  ],
  "extensionsRequired": [
    "KHR_materials_pbrSpecularGlossiness"
  ],
  "extensionsUsed": [
    "KHR_materials_pbrSpecularGlossiness"
  ],
  "images": [
    {
      "uri": "textures/Plane.001_Bake1_baked_diffuse.png"
    }
  ],
  "materials": [
    {
      "alphaMode": "BLEND",
      "doubleSided": true,
      "emissiveFactor": [
        0.0036469926930113401,
        0.062567356170302388,
        0.16961368595750506
      ],
      "extensions": {
        "KHR_materials_pbrSpecularGlossiness": {
          "diffuseFactor": [
            0,
            1,
            0.66113080919795419,
            0.54260745603344263
          ],
          "diffuseTexture": {
            "index": 0,
            "texCoord": 0
          },
          "glossinessFactor": 0.94479633855772627,
          "specularFactor": [
            1,
            1,
            1
          ]
        }
      },
      "name": "Plane.001_Bake1_baked"
    }
  ],
  "meshes": [
    {
      "name": "Plane.001_Baked_Plane.001_Bake1_baked_0",
      "primitives": [
        {
          "attributes": {
            "NORMAL": 1,
            "POSITION": 0,
            "TEXCOORD_0": 2,
            "TEXCOORD_1": 3
          },
          "indices": 4,
          "material": 0,
          "mode": 4
        }
      ]
    }
  ],
  "nodes": [
    {
      "children": [
        1
      ],
      "name": "RootNode (gltf orientation matrix)",
      "rotation": [
        -0.70710678118654746,
        -0,
        -0,
        0.70710678118654757
      ]
    },
    {
      "children": [
        2
      ],
      "name": "RootNode (model correction matrix)"
    },
    {
      "children": [
        3
      ],
      "matrix": [
        1,
        0,
        0,
        0,
        0,
        0,
        1,
        0,
        0,
        -1,
        0,
        0,
        0,
        0,
        0,
        1
      ],
      "name": "8d25b847f4a84ca892ef1e270c24b828.fbx"
    },
    {
      "children": [
        4
      ],
      "name": "RootNode"
    },
    {
      "children": [
        5
      ],
      "matrix": [
        109.03744506835938,
        0,
        0,
        0,
        0,
        -23.831804674617413,
        -106.4011803353976,
        0,
        0,
        106.4011803353976,
        -23.831804674617413,
        0,
        0,
        -199.47952270507812,
        0,
        1
      ],
      "name": "Plane.001_Baked"
    },
    {
      "mesh": 0,
      "name": "Plane.001_Baked_Plane.001_Bake1_baked_0"
    }
  ],
  "samplers": [
    {
      "magFilter": 9729,
      "minFilter": 9987,
      "wrapS": 10497,
      "wrapT": 10497
    }
  ],
  "scene": 0,
  "scenes": [
    {
      "name": "OSG_Scene",
      "nodes": [
        0
      ]
    }
  ],
  "textures": [
    {
      "sampler": 0,
      "source": 0
    }
  ]
}

